<?xml version="1.0" encoding="UTF-8"?>
<svg width="700pt" height="700pt" version="1.1" viewBox="0 0 700 700" xmlns="http://www.w3.org/2000/svg" xmlns:xlink="http://www.w3.org/1999/xlink">
  <path d="m266 294c-7.7305 0-14-6.2695-14-14s6.2695-14 
  14-14h168c7.7305 0 14 6.2695 14 14s-6.2695 14-14 14zm0 67.199c-7.7305 0-14-6.2656-14-14 
  0-7.7305 6.2695-14 14-14h168c7.7305 0 14 6.2695 14 14 0 7.7344-6.2695 14-14 14zm0-134.4c-7.7305 
  0-14-6.2695-14-14 0-7.7344 6.2695-14 14-14h168c7.7305 0 14 6.2656 14 14 0 7.7305-6.2695 14-14 14z" fill="white"/>
</svg>
