<svg width="77" height="77" viewBox="0 0 77 77" fill="none" xmlns="http://www.w3.org/2000/svg">
<path d="M38.1 0.799805C17.1 0.799805 0.100037 17.7998 0.100037 38.7998C0.100037 59.7998 17.1 76.7998 38.1 76.7998C59.1 76.7998 76.1 59.7998 76.1 38.7998C76.1 17.7998 59.1 0.799805 38.1 0.799805ZM28.6 55.6998H21.6V32.6998H28.6V55.6998ZM24.7001 30.6998C22.0001 30.6998 20.4001 28.6998 20.4001 26.4998C20.4001 24.2998 22.1 22.3998 24.8 22.3998C27.4 22.3998 29.1 24.2998 29.1 26.4998C29.1 28.7998 27.4001 30.6998 24.7001 30.6998ZM57.6 55.6998H48.6V43.9998C48.6 40.8998 47.6 38.7998 44.8 38.7998C42.7001 38.7998 41.4001 40.1998 40.9001 41.5998C40.7001 42.0998 40.7001 42.7998 40.7001 43.4998V55.6998H33.0001C33.0001 55.6998 33.1001 34.6998 33.0001 32.6998H40.7001V36.5998C41.7001 34.9998 44.1001 32.7998 48.2001 32.7998C53.3001 32.7998 57.7001 36.0998 57.7001 43.0998V55.6998H57.6Z" fill="white"/>
</svg>
