<svg width="77" height="77" viewBox="0 0 77 77" fill="none" xmlns="http://www.w3.org/2000/svg">
<path d="M30.4001 36.6998H24.6V31.6998H29.8C30.9 31.6998 31.8001 31.5998 32.5001 31.8998C33.3001 32.1998 33.7001 32.7998 33.7001 33.8998C33.7001 34.7998 33.4 35.6998 32.8 35.9998C32.1 36.2998 31.3001 36.6998 30.4001 36.6998Z" fill="white"/>
<path d="M34.1 42.6997C34.1 44.0997 33.6 44.8997 32.6 45.3997C32.1 45.6997 31.3 45.6997 30.3 45.6997H24.5001V39.6997H30.3C31.3 39.6997 32 39.8997 32.6 40.1997C33.7 40.5997 34.1 41.4997 34.1 42.6997Z" fill="white"/>
<path d="M38.1 0.799805C17.1 0.799805 0.100037 17.7998 0.100037 38.7998C0.100037 59.7998 17.1 76.7998 38.1 76.7998C59.1 76.7998 76.1 59.7998 76.1 38.7998C76.1 17.7998 59.1 0.799805 38.1 0.799805ZM43.6 28.6998H53.6V31.6998H43.6V28.6998ZM37.9001 46.5998C37.5001 47.2998 36.9 47.8998 36.3 48.3998C35.6 48.8998 34.7001 49.2998 33.7001 49.4998C32.7001 49.6998 31.7001 49.7998 30.5001 49.7998H20.5001V27.7998H31.2001C34.0001 27.7998 35.9 28.4998 37.1 29.9998C37.8 30.9998 38.1 31.9998 38.1 33.2998C38.1 34.6998 37.8 35.6998 37.1 36.4998C36.7 36.9998 36.1001 37.3998 35.4001 37.7998C36.5001 38.1998 37.4001 38.8998 38.0001 39.7998C38.6001 40.6998 38.9001 41.7998 38.9001 43.0998C38.9001 44.2998 38.6001 45.4998 37.9001 46.5998ZM57.0001 42.6998H44.8C44.9 44.6998 45.5 45.4998 46.6 46.1998C47.3 46.5998 48.1001 46.7998 49.0001 46.7998C50.0001 46.7998 50.8001 46.4998 51.4001 45.9998C51.7001 45.6998 52 45.7998 52.3 44.7998H56.8C56.7001 45.7998 56.1001 46.8998 55.2001 47.8998C53.7001 49.4998 51.6001 50.3998 48.9001 50.3998C46.7001 50.3998 44.7001 49.6998 43.0001 48.3998C41.3001 46.9998 40.4001 44.7998 40.4001 41.7998C40.4001 38.8998 41.2001 36.7998 42.7001 35.1998C44.2001 33.6998 46.2001 32.8998 48.7001 32.8998C50.2001 32.8998 51.5 33.1998 52.6 33.6998C53.8 34.1998 54.7001 34.9998 55.5001 36.1998C56.2001 37.1998 56.6 38.2998 56.8 39.5998C57 40.1998 57.0001 41.6998 57.0001 42.6998ZM48.7001 36.2998C47.6001 36.2998 46.7 36.5998 46.1 37.1998C45.5 37.7998 45.1001 38.6998 44.9001 39.6998H52.5001C52.4001 38.6998 52 37.6998 51.3 37.1998C50.6 36.5998 49.7001 36.2998 48.7001 36.2998Z" fill="white"/>
</svg>
